<?xml version="1.0" encoding="UTF-8"?>
<svg width="300" height="300" viewBox="0 0 300 300" fill="none" xmlns="http://www.w3.org/2000/svg">
  <!-- Money Bill -->
  <rect x="60" y="240" width="120" height="40" rx="4" fill="#4CAF50" fill-opacity="0.8"/>
  <circle cx="100" cy="260" r="12" fill="#388E3C" fill-opacity="0.8"/>
  <path d="M95 260H105M100 255V265" stroke="white" stroke-width="2"/>
  
  <!-- Pot -->
  <rect x="40" y="200" width="160" height="20" fill="#388E3C"/>
  <path d="M50 200C50 200 70 180 120 180C170 180 190 200 190 200" fill="#4CAF50"/>
  
  <!-- Stem -->
  <path d="M120 180L120 80" stroke="#388E3C" stroke-width="4"/>
  
  <!-- Leaves -->
  <path d="M120 150C120 150 140 140 160 150" stroke="#4CAF50" stroke-width="4"/>
  <path d="M120 150C120 150 100 140 80 150" stroke="#4CAF50" stroke-width="4"/>
  <path d="M120 120C120 120 140 110 160 120" stroke="#4CAF50" stroke-width="4"/>
  <path d="M120 120C120 120 100 110 80 120" stroke="#4CAF50" stroke-width="4"/>
  
  <!-- Money Flower -->
  <circle cx="120" cy="60" r="20" fill="#4CAF50"/>
  <path d="M115 60H125M120 55V65" stroke="white" stroke-width="2"/>
  
  <!-- Texture -->
  <rect width="300" height="300" fill="url(#noise)"/>
  
  <defs>
    <filter id="noise" x="0" y="0" width="300" height="300">
      <feTurbulence type="fractalNoise" baseFrequency="0.8" numOctaves="4" stitchTiles="stitch"/>
      <feColorMatrix type="matrix" values="0 0 0 0 1   0 0 0 0 1   0 0 0 0 1  0 0 0 0.1 0"/>
    </filter>
  </defs>
</svg>
